<?xml version="1.0" encoding="UTF-8" standalone="no"?>
<!DOCTYPE svg PUBLIC "-//W3C//DTD SVG 1.1//EN"
 "http://www.w3.org/Graphics/SVG/1.1/DTD/svg11.dtd">
<!-- Generated by graphviz version 14.1.2 (20260126.1125)
 -->
<!-- Title: riscv_extensions Pages: 1 -->
<svg width="2053pt" height="490pt"
 viewBox="0.00 0.00 2053.00 490.00" xmlns="http://www.w3.org/2000/svg" xmlns:xlink="http://www.w3.org/1999/xlink">
<g id="graph0" class="graph" transform="scale(1 1) rotate(0) translate(4 486.25)">
<title>riscv_extensions</title>
<polygon fill="white" stroke="none" points="-4,4 -4,-486.25 2049.2,-486.25 2049.2,4 -4,4"/>
<!-- rv64_zk -->
<g id="node1" class="node">
<title>rv64_zk</title>
<ellipse fill="none" stroke="black" cx="148.42" cy="-285.75" rx="50.16" ry="18"/>
<text xml:space="preserve" text-anchor="middle" x="148.42" y="-281.07" font-family="Times,serif" font-size="14.00">rv64_zk</text>
</g>
<!-- rv64_zkn -->
<g id="node2" class="node">
<title>rv64_zkn</title>
<ellipse fill="none" stroke="black" cx="318.42" cy="-196.5" rx="56.47" ry="18"/>
<text xml:space="preserve" text-anchor="middle" x="318.42" y="-191.82" font-family="Times,serif" font-size="14.00">rv64_zkn</text>
</g>
<!-- rv64_zk&#45;&#45;rv64_zkn -->
<g id="edge1" class="edge">
<title>rv64_zk&#45;&#45;rv64_zkn</title>
<path fill="none" stroke="black" d="M186.78,-274C205.35,-268.07 227.64,-259.84 246.42,-249.75 257.67,-243.7 259.11,-240.05 269.42,-232.5 278.02,-226.2 287.55,-219.37 295.9,-213.42"/>
<text xml:space="preserve" text-anchor="middle" x="278.42" y="-236.45" font-family="Times,serif" font-size="14.00">16</text>
</g>
<!-- rv64_zks -->
<g id="node15" class="node">
<title>rv64_zks</title>
<ellipse fill="none" stroke="black" cx="55.42" cy="-107.25" rx="55.42" ry="18"/>
<text xml:space="preserve" text-anchor="middle" x="55.42" y="-102.58" font-family="Times,serif" font-size="14.00">rv64_zks</text>
</g>
<!-- rv64_zk&#45;&#45;rv64_zks -->
<g id="edge19" class="edge">
<title>rv64_zk&#45;&#45;rv64_zks</title>
<path fill="none" stroke="black" d="M136.18,-267.99C132.24,-262.31 127.98,-255.86 124.42,-249.75 99.11,-206.29 74.53,-152.21 62.71,-125.22"/>
<text xml:space="preserve" text-anchor="middle" x="109.33" y="-191.82" font-family="Times,serif" font-size="14.00">5</text>
</g>
<!-- rv64_zknd -->
<g id="node16" class="node">
<title>rv64_zknd</title>
<ellipse fill="none" stroke="black" cx="229.42" cy="-107.25" rx="62.78" ry="18"/>
<text xml:space="preserve" text-anchor="middle" x="229.42" y="-102.58" font-family="Times,serif" font-size="14.00">rv64_zknd</text>
</g>
<!-- rv64_zk&#45;&#45;rv64_zknd -->
<g id="edge18" class="edge">
<title>rv64_zk&#45;&#45;rv64_zknd</title>
<path fill="none" stroke="black" d="M152.18,-267.72C158.74,-240.18 173.96,-184.78 198.42,-143.25 202.21,-136.82 207.28,-130.49 212.22,-125.02"/>
<text xml:space="preserve" text-anchor="middle" x="184.72" y="-191.82" font-family="Times,serif" font-size="14.00">5</text>
</g>
<!-- rv64_zkne -->
<g id="node19" class="node">
<title>rv64_zkne</title>
<ellipse fill="none" stroke="black" cx="229.42" cy="-18" rx="62.26" ry="18"/>
<text xml:space="preserve" text-anchor="middle" x="229.42" y="-13.32" font-family="Times,serif" font-size="14.00">rv64_zkne</text>
</g>
<!-- rv64_zk&#45;&#45;rv64_zkne -->
<g id="edge30" class="edge">
<title>rv64_zk&#45;&#45;rv64_zkne</title>
<path fill="none" stroke="black" d="M145.13,-267.31C139.31,-231.91 130.22,-149.85 157.42,-89.25 167.57,-66.62 188.61,-47.49 205.34,-34.93"/>
<text xml:space="preserve" text-anchor="middle" x="146.68" y="-147.2" font-family="Times,serif" font-size="14.00">4</text>
</g>
<!-- rv64_zknh -->
<g id="node20" class="node">
<title>rv64_zknh</title>
<ellipse fill="none" stroke="black" cx="373.42" cy="-107.25" rx="62.78" ry="18"/>
<text xml:space="preserve" text-anchor="middle" x="373.42" y="-102.58" font-family="Times,serif" font-size="14.00">rv64_zknh</text>
</g>
<!-- rv64_zk&#45;&#45;rv64_zknh -->
<g id="edge31" class="edge">
<title>rv64_zk&#45;&#45;rv64_zknh</title>
<path fill="none" stroke="black" d="M161.13,-267.88C188.07,-232.29 249.49,-152.08 262.42,-143.25 273.31,-135.82 301.94,-126.87 327.39,-119.88"/>
<text xml:space="preserve" text-anchor="middle" x="234.94" y="-191.82" font-family="Times,serif" font-size="14.00">4</text>
</g>
<!-- rv64_zkn&#45;&#45;rv64_zks -->
<g id="edge21" class="edge">
<title>rv64_zkn&#45;&#45;rv64_zks</title>
<path fill="none" stroke="black" d="M280.17,-182.81C230.17,-166.22 143.1,-137.34 93.28,-120.81"/>
<text xml:space="preserve" text-anchor="middle" x="214.97" y="-147.2" font-family="Times,serif" font-size="14.00">5</text>
</g>
<!-- rv64_zkn&#45;&#45;rv64_zknd -->
<g id="edge20" class="edge">
<title>rv64_zkn&#45;&#45;rv64_zknd</title>
<path fill="none" stroke="black" d="M301.68,-179.09C285.87,-163.59 262.27,-140.46 246.38,-124.88"/>
<text xml:space="preserve" text-anchor="middle" x="286.39" y="-147.2" font-family="Times,serif" font-size="14.00">5</text>
</g>
<!-- rv64_zkn&#45;&#45;rv64_zkne -->
<g id="edge32" class="edge">
<title>rv64_zkn&#45;&#45;rv64_zkne</title>
<path fill="none" stroke="black" d="M356.58,-182.85C403.97,-165.06 475.15,-130.19 445.42,-89.25 410.54,-41.23 342.02,-25.39 291.46,-20.49"/>
<text xml:space="preserve" text-anchor="middle" x="456.95" y="-102.58" font-family="Times,serif" font-size="14.00">4</text>
</g>
<!-- rv64_zkn&#45;&#45;rv64_zknh -->
<g id="edge33" class="edge">
<title>rv64_zkn&#45;&#45;rv64_zknh</title>
<path fill="none" stroke="black" d="M329.02,-178.68C338.7,-163.33 352.93,-140.75 362.66,-125.32"/>
<text xml:space="preserve" text-anchor="middle" x="355.34" y="-147.2" font-family="Times,serif" font-size="14.00">4</text>
</g>
<!-- rv_zk -->
<g id="node3" class="node">
<title>rv_zk</title>
<ellipse fill="none" stroke="black" cx="717.42" cy="-285.75" rx="37.53" ry="18"/>
<text xml:space="preserve" text-anchor="middle" x="717.42" y="-281.07" font-family="Times,serif" font-size="14.00">rv_zk</text>
</g>
<!-- rv_zkn -->
<g id="node4" class="node">
<title>rv_zkn</title>
<ellipse fill="none" stroke="black" cx="720.42" cy="-196.5" rx="43.84" ry="18"/>
<text xml:space="preserve" text-anchor="middle" x="720.42" y="-191.82" font-family="Times,serif" font-size="14.00">rv_zkn</text>
</g>
<!-- rv_zk&#45;&#45;rv_zkn -->
<g id="edge2" class="edge">
<title>rv_zk&#45;&#45;rv_zkn</title>
<path fill="none" stroke="black" d="M718.01,-267.51C718.54,-252.22 719.3,-229.99 719.83,-214.7"/>
<text xml:space="preserve" text-anchor="middle" x="728.19" y="-236.45" font-family="Times,serif" font-size="14.00">15</text>
</g>
<!-- rv_zks -->
<g id="node5" class="node">
<title>rv_zks</title>
<ellipse fill="none" stroke="black" cx="800.42" cy="-107.25" rx="42.79" ry="18"/>
<text xml:space="preserve" text-anchor="middle" x="800.42" y="-102.58" font-family="Times,serif" font-size="14.00">rv_zks</text>
</g>
<!-- rv_zk&#45;&#45;rv_zks -->
<g id="edge3" class="edge">
<title>rv_zk&#45;&#45;rv_zks</title>
<path fill="none" stroke="black" d="M733.17,-269.1C745.81,-255.7 763.08,-235.31 773.42,-214.5 787.98,-185.18 795.16,-147.3 798.31,-125.59"/>
<text xml:space="preserve" text-anchor="middle" x="796.01" y="-191.82" font-family="Times,serif" font-size="14.00">11</text>
</g>
<!-- rv_zknh -->
<g id="node21" class="node">
<title>rv_zknh</title>
<ellipse fill="none" stroke="black" cx="627.42" cy="-107.25" rx="50.16" ry="18"/>
<text xml:space="preserve" text-anchor="middle" x="627.42" y="-102.58" font-family="Times,serif" font-size="14.00">rv_zknh</text>
</g>
<!-- rv_zk&#45;&#45;rv_zknh -->
<g id="edge34" class="edge">
<title>rv_zk&#45;&#45;rv_zknh</title>
<path fill="none" stroke="black" d="M700.98,-269.16C687.76,-255.79 669.61,-235.42 658.42,-214.5 642.83,-185.36 634.19,-147.41 630.2,-125.65"/>
<text xml:space="preserve" text-anchor="middle" x="662.92" y="-191.82" font-family="Times,serif" font-size="14.00">4</text>
</g>
<!-- rv_zkn&#45;&#45;rv_zks -->
<g id="edge4" class="edge">
<title>rv_zkn&#45;&#45;rv_zks</title>
<path fill="none" stroke="black" d="M735.09,-179.5C749.43,-163.85 771.16,-140.16 785.57,-124.45"/>
<text xml:space="preserve" text-anchor="middle" x="776.58" y="-147.2" font-family="Times,serif" font-size="14.00">11</text>
</g>
<!-- rv_zkn&#45;&#45;rv_zknh -->
<g id="edge35" class="edge">
<title>rv_zkn&#45;&#45;rv_zknh</title>
<path fill="none" stroke="black" d="M703.36,-179.5C686.68,-163.85 661.43,-140.16 644.68,-124.45"/>
<text xml:space="preserve" text-anchor="middle" x="686.75" y="-147.2" font-family="Times,serif" font-size="14.00">4</text>
</g>
<!-- rv_zksed -->
<g id="node30" class="node">
<title>rv_zksed</title>
<ellipse fill="none" stroke="black" cx="739.42" cy="-18" rx="54.89" ry="18"/>
<text xml:space="preserve" text-anchor="middle" x="739.42" y="-13.32" font-family="Times,serif" font-size="14.00">rv_zksed</text>
</g>
<!-- rv_zks&#45;&#45;rv_zksed -->
<g id="edge55" class="edge">
<title>rv_zks&#45;&#45;rv_zksed</title>
<path fill="none" stroke="black" d="M788.94,-89.84C778.18,-74.44 762.14,-51.5 751.26,-35.93"/>
<text xml:space="preserve" text-anchor="middle" x="779.88" y="-57.95" font-family="Times,serif" font-size="14.00">2</text>
</g>
<!-- rv_zksh -->
<g id="node31" class="node">
<title>rv_zksh</title>
<ellipse fill="none" stroke="black" cx="861.42" cy="-18" rx="49.1" ry="18"/>
<text xml:space="preserve" text-anchor="middle" x="861.42" y="-13.32" font-family="Times,serif" font-size="14.00">rv_zksh</text>
</g>
<!-- rv_zks&#45;&#45;rv_zksh -->
<g id="edge56" class="edge">
<title>rv_zks&#45;&#45;rv_zksh</title>
<path fill="none" stroke="black" d="M811.89,-89.84C822.66,-74.44 838.69,-51.5 849.58,-35.93"/>
<text xml:space="preserve" text-anchor="middle" x="840.88" y="-57.95" font-family="Times,serif" font-size="14.00">2</text>
</g>
<!-- rv_zvkn -->
<g id="node6" class="node">
<title>rv_zvkn</title>
<ellipse fill="none" stroke="black" cx="1323.42" cy="-375" rx="49.63" ry="18"/>
<text xml:space="preserve" text-anchor="middle" x="1323.42" y="-370.32" font-family="Times,serif" font-size="14.00">rv_zvkn</text>
</g>
<!-- rv_zvkned -->
<g id="node7" class="node">
<title>rv_zvkned</title>
<ellipse fill="none" stroke="black" cx="1553.42" cy="-285.75" rx="61.73" ry="18"/>
<text xml:space="preserve" text-anchor="middle" x="1553.42" y="-281.07" font-family="Times,serif" font-size="14.00">rv_zvkned</text>
</g>
<!-- rv_zvkn&#45;&#45;rv_zvkned -->
<g id="edge5" class="edge">
<title>rv_zvkn&#45;&#45;rv_zvkned</title>
<path fill="none" stroke="black" d="M1356.86,-361.31C1399.47,-345.15 1472.86,-317.31 1516.89,-300.61"/>
<text xml:space="preserve" text-anchor="middle" x="1468.02" y="-325.7" font-family="Times,serif" font-size="14.00">11</text>
</g>
<!-- rv_zvks -->
<g id="node11" class="node">
<title>rv_zvks</title>
<ellipse fill="none" stroke="black" cx="1238.42" cy="-285.75" rx="48.58" ry="18"/>
<text xml:space="preserve" text-anchor="middle" x="1238.42" y="-281.07" font-family="Times,serif" font-size="14.00">rv_zvks</text>
</g>
<!-- rv_zvkn&#45;&#45;rv_zvks -->
<g id="edge9" class="edge">
<title>rv_zvkn&#45;&#45;rv_zvks</title>
<path fill="none" stroke="black" d="M1307.43,-357.59C1292.23,-341.99 1269.51,-318.66 1254.33,-303.09"/>
<text xml:space="preserve" text-anchor="middle" x="1293.03" y="-325.7" font-family="Times,serif" font-size="14.00">9</text>
</g>
<!-- rv_zvknha -->
<g id="node22" class="node">
<title>rv_zvknha</title>
<ellipse fill="none" stroke="black" cx="1412.42" cy="-285.75" rx="61.73" ry="18"/>
<text xml:space="preserve" text-anchor="middle" x="1412.42" y="-281.07" font-family="Times,serif" font-size="14.00">rv_zvknha</text>
</g>
<!-- rv_zvkn&#45;&#45;rv_zvknha -->
<g id="edge36" class="edge">
<title>rv_zvkn&#45;&#45;rv_zvknha</title>
<path fill="none" stroke="black" d="M1340.16,-357.59C1355.97,-342.09 1379.56,-318.96 1395.45,-303.38"/>
<text xml:space="preserve" text-anchor="middle" x="1380.39" y="-325.7" font-family="Times,serif" font-size="14.00">3</text>
</g>
<!-- rv_zvknhb -->
<g id="node23" class="node">
<title>rv_zvknhb</title>
<ellipse fill="none" stroke="black" cx="1402.42" cy="-196.5" rx="62.26" ry="18"/>
<text xml:space="preserve" text-anchor="middle" x="1402.42" y="-191.82" font-family="Times,serif" font-size="14.00">rv_zvknhb</text>
</g>
<!-- rv_zvkn&#45;&#45;rv_zvknhb -->
<g id="edge37" class="edge">
<title>rv_zvkn&#45;&#45;rv_zvknhb</title>
<path fill="none" stroke="black" d="M1321.36,-356.52C1319.57,-334.67 1319.03,-296.64 1332.42,-267.75 1342.7,-245.57 1363.11,-226.38 1379.25,-213.69"/>
<text xml:space="preserve" text-anchor="middle" x="1336.92" y="-281.07" font-family="Times,serif" font-size="14.00">3</text>
</g>
<!-- rv32_zk -->
<g id="node8" class="node">
<title>rv32_zk</title>
<ellipse fill="none" stroke="black" cx="1814.42" cy="-464.25" rx="50.16" ry="18"/>
<text xml:space="preserve" text-anchor="middle" x="1814.42" y="-459.57" font-family="Times,serif" font-size="14.00">rv32_zk</text>
</g>
<!-- rv32_zkn -->
<g id="node9" class="node">
<title>rv32_zkn</title>
<ellipse fill="none" stroke="black" cx="1856.42" cy="-375" rx="56.47" ry="18"/>
<text xml:space="preserve" text-anchor="middle" x="1856.42" y="-370.32" font-family="Times,serif" font-size="14.00">rv32_zkn</text>
</g>
<!-- rv32_zk&#45;&#45;rv32_zkn -->
<g id="edge6" class="edge">
<title>rv32_zk&#45;&#45;rv32_zkn</title>
<path fill="none" stroke="black" d="M1822.71,-446.01C1830.08,-430.72 1840.78,-408.49 1848.14,-393.2"/>
<text xml:space="preserve" text-anchor="middle" x="1848.18" y="-414.95" font-family="Times,serif" font-size="14.00">10</text>
</g>
<!-- rv32_zknh -->
<g id="node13" class="node">
<title>rv32_zknh</title>
<ellipse fill="none" stroke="black" cx="1696.42" cy="-285.75" rx="62.78" ry="18"/>
<text xml:space="preserve" text-anchor="middle" x="1696.42" y="-281.07" font-family="Times,serif" font-size="14.00">rv32_zknh</text>
</g>
<!-- rv32_zk&#45;&#45;rv32_zknh -->
<g id="edge13" class="edge">
<title>rv32_zk&#45;&#45;rv32_zknh</title>
<path fill="none" stroke="black" d="M1799.54,-446.94C1794.54,-441.19 1789.05,-434.58 1784.42,-428.25 1752.95,-385.32 1721.26,-331 1705.92,-303.84"/>
<text xml:space="preserve" text-anchor="middle" x="1764.36" y="-370.32" font-family="Times,serif" font-size="14.00">6</text>
</g>
<!-- rv32_zknd -->
<g id="node25" class="node">
<title>rv32_zknd</title>
<ellipse fill="none" stroke="black" cx="1982.42" cy="-285.75" rx="62.78" ry="18"/>
<text xml:space="preserve" text-anchor="middle" x="1982.42" y="-281.07" font-family="Times,serif" font-size="14.00">rv32_zknd</text>
</g>
<!-- rv32_zk&#45;&#45;rv32_zknd -->
<g id="edge40" class="edge">
<title>rv32_zk&#45;&#45;rv32_zknd</title>
<path fill="none" stroke="black" d="M1842.97,-449.32C1866.19,-436.95 1898.71,-417.1 1921.42,-393 1946.94,-365.9 1966.07,-326.2 1975.63,-303.79"/>
<text xml:space="preserve" text-anchor="middle" x="1952.68" y="-370.32" font-family="Times,serif" font-size="14.00">2</text>
</g>
<!-- rv32_zkne -->
<g id="node26" class="node">
<title>rv32_zkne</title>
<ellipse fill="none" stroke="black" cx="1839.42" cy="-285.75" rx="62.26" ry="18"/>
<text xml:space="preserve" text-anchor="middle" x="1839.42" y="-281.07" font-family="Times,serif" font-size="14.00">rv32_zkne</text>
</g>
<!-- rv32_zk&#45;&#45;rv32_zkne -->
<g id="edge41" class="edge">
<title>rv32_zk&#45;&#45;rv32_zkne</title>
<path fill="none" stroke="black" d="M1804.18,-446.59C1788.44,-418.62 1762.59,-361.38 1787.42,-321.75 1792.5,-313.63 1800.23,-306.96 1808.19,-301.7"/>
<text xml:space="preserve" text-anchor="middle" x="1786.18" y="-370.32" font-family="Times,serif" font-size="14.00">2</text>
</g>
<!-- rv32_zkn&#45;&#45;rv32_zknh -->
<g id="edge14" class="edge">
<title>rv32_zkn&#45;&#45;rv32_zknh</title>
<path fill="none" stroke="black" d="M1828.91,-359C1799.78,-343.12 1754.03,-318.17 1724.64,-302.14"/>
<text xml:space="preserve" text-anchor="middle" x="1795.25" y="-325.7" font-family="Times,serif" font-size="14.00">6</text>
</g>
<!-- rv32_zkn&#45;&#45;rv32_zknd -->
<g id="edge42" class="edge">
<title>rv32_zkn&#45;&#45;rv32_zknd</title>
<path fill="none" stroke="black" d="M1879.23,-358.2C1901.93,-342.49 1936.56,-318.5 1959.34,-302.73"/>
<text xml:space="preserve" text-anchor="middle" x="1935.2" y="-325.7" font-family="Times,serif" font-size="14.00">2</text>
</g>
<!-- rv32_zkn&#45;&#45;rv32_zkne -->
<g id="edge43" class="edge">
<title>rv32_zkn&#45;&#45;rv32_zkne</title>
<path fill="none" stroke="black" d="M1853.06,-356.76C1850.08,-341.47 1845.75,-319.24 1842.77,-303.95"/>
<text xml:space="preserve" text-anchor="middle" x="1853.94" y="-325.7" font-family="Times,serif" font-size="14.00">2</text>
</g>
<!-- rv_zvbb -->
<g id="node10" class="node">
<title>rv_zvbb</title>
<ellipse fill="none" stroke="black" cx="1262.42" cy="-464.25" rx="50.16" ry="18"/>
<text xml:space="preserve" text-anchor="middle" x="1262.42" y="-459.57" font-family="Times,serif" font-size="14.00">rv_zvbb</text>
</g>
<!-- rv_zvbb&#45;&#45;rv_zvkn -->
<g id="edge7" class="edge">
<title>rv_zvbb&#45;&#45;rv_zvkn</title>
<path fill="none" stroke="black" d="M1274.18,-446.43C1284.98,-430.98 1300.9,-408.2 1311.69,-392.77"/>
<text xml:space="preserve" text-anchor="middle" x="1302.88" y="-414.95" font-family="Times,serif" font-size="14.00">9</text>
</g>
<!-- rv_zvbb&#45;&#45;rv_zvks -->
<g id="edge8" class="edge">
<title>rv_zvbb&#45;&#45;rv_zvks</title>
<path fill="none" stroke="black" d="M1260.07,-446.01C1255.48,-412.26 1245.37,-337.86 1240.77,-304.06"/>
<text xml:space="preserve" text-anchor="middle" x="1257.3" y="-370.32" font-family="Times,serif" font-size="14.00">9</text>
</g>
<!-- rv_zvksed -->
<g id="node24" class="node">
<title>rv_zvksed</title>
<ellipse fill="none" stroke="black" cx="1123.42" cy="-196.5" rx="60.68" ry="18"/>
<text xml:space="preserve" text-anchor="middle" x="1123.42" y="-191.82" font-family="Times,serif" font-size="14.00">rv_zvksed</text>
</g>
<!-- rv_zvks&#45;&#45;rv_zvksed -->
<g id="edge39" class="edge">
<title>rv_zvks&#45;&#45;rv_zvksed</title>
<path fill="none" stroke="black" d="M1217.86,-269.15C1197.18,-253.47 1165.46,-229.4 1144.58,-213.55"/>
<text xml:space="preserve" text-anchor="middle" x="1195.72" y="-236.45" font-family="Times,serif" font-size="14.00">3</text>
</g>
<!-- rv_zvksh -->
<g id="node32" class="node">
<title>rv_zvksh</title>
<ellipse fill="none" stroke="black" cx="1257.42" cy="-196.5" rx="54.89" ry="18"/>
<text xml:space="preserve" text-anchor="middle" x="1257.42" y="-191.82" font-family="Times,serif" font-size="14.00">rv_zvksh</text>
</g>
<!-- rv_zvks&#45;&#45;rv_zvksh -->
<g id="edge57" class="edge">
<title>rv_zvks&#45;&#45;rv_zvksh</title>
<path fill="none" stroke="black" d="M1242.17,-267.51C1245.5,-252.22 1250.34,-229.99 1253.67,-214.7"/>
<text xml:space="preserve" text-anchor="middle" x="1254.12" y="-236.45" font-family="Times,serif" font-size="14.00">2</text>
</g>
<!-- rv_zbkb -->
<g id="node12" class="node">
<title>rv_zbkb</title>
<ellipse fill="none" stroke="black" cx="552.42" cy="-375" rx="50.16" ry="18"/>
<text xml:space="preserve" text-anchor="middle" x="552.42" y="-370.32" font-family="Times,serif" font-size="14.00">rv_zbkb</text>
</g>
<!-- rv_zbkb&#45;&#45;rv_zk -->
<g id="edge10" class="edge">
<title>rv_zbkb&#45;&#45;rv_zk</title>
<path fill="none" stroke="black" d="M588.52,-362.1C604.83,-356.11 624.07,-348.17 640.42,-339 651.56,-332.75 652.94,-329.06 663.42,-321.75 673.68,-314.59 685.3,-306.99 695.12,-300.72"/>
<text xml:space="preserve" text-anchor="middle" x="667.92" y="-325.7" font-family="Times,serif" font-size="14.00">7</text>
</g>
<!-- rv_zbkb&#45;&#45;rv_zkn -->
<g id="edge11" class="edge">
<title>rv_zbkb&#45;&#45;rv_zkn</title>
<path fill="none" stroke="black" d="M556.46,-356.6C564.22,-327.01 583.93,-266.75 622.42,-232.5 627.48,-228 660.25,-216.75 686.53,-208.22"/>
<text xml:space="preserve" text-anchor="middle" x="596.94" y="-281.07" font-family="Times,serif" font-size="14.00">7</text>
</g>
<!-- rv_zbkb&#45;&#45;rv_zks -->
<g id="edge12" class="edge">
<title>rv_zbkb&#45;&#45;rv_zks</title>
<path fill="none" stroke="black" d="M540.46,-357.3C526.75,-335.94 507.8,-298.08 521.42,-267.75 555.52,-191.79 587.82,-182.2 661.42,-143.25 692.21,-126.95 730.89,-118.01 759.63,-113.26"/>
<text xml:space="preserve" text-anchor="middle" x="544.09" y="-236.45" font-family="Times,serif" font-size="14.00">7</text>
</g>
<!-- rv64_zbkb -->
<g id="node14" class="node">
<title>rv64_zbkb</title>
<ellipse fill="none" stroke="black" cx="148.42" cy="-375" rx="62.78" ry="18"/>
<text xml:space="preserve" text-anchor="middle" x="148.42" y="-370.32" font-family="Times,serif" font-size="14.00">rv64_zbkb</text>
</g>
<!-- rv64_zbkb&#45;&#45;rv64_zk -->
<g id="edge15" class="edge">
<title>rv64_zbkb&#45;&#45;rv64_zk</title>
<path fill="none" stroke="black" d="M148.42,-356.76C148.42,-341.47 148.42,-319.24 148.42,-303.95"/>
<text xml:space="preserve" text-anchor="middle" x="152.92" y="-325.7" font-family="Times,serif" font-size="14.00">5</text>
</g>
<!-- rv64_zbkb&#45;&#45;rv64_zkn -->
<g id="edge16" class="edge">
<title>rv64_zbkb&#45;&#45;rv64_zkn</title>
<path fill="none" stroke="black" d="M170.55,-357.69C199.69,-335.49 251.43,-293.49 287.42,-249.75 296.4,-238.84 304.47,-225.03 310.12,-214.35"/>
<text xml:space="preserve" text-anchor="middle" x="275.23" y="-281.07" font-family="Times,serif" font-size="14.00">5</text>
</g>
<!-- rv64_zbkb&#45;&#45;rv64_zks -->
<g id="edge17" class="edge">
<title>rv64_zbkb&#45;&#45;rv64_zks</title>
<path fill="none" stroke="black" d="M129.97,-357.37C116.55,-344.17 99.09,-324.55 89.42,-303.75 61.01,-242.68 56.16,-160.87 55.46,-125.61"/>
<text xml:space="preserve" text-anchor="middle" x="75.07" y="-236.45" font-family="Times,serif" font-size="14.00">5</text>
</g>
<!-- rv64_zknd&#45;&#45;rv64_zkne -->
<g id="edge44" class="edge">
<title>rv64_zknd&#45;&#45;rv64_zkne</title>
<path fill="none" stroke="black" d="M229.42,-89.01C229.42,-73.72 229.42,-51.49 229.42,-36.2"/>
<text xml:space="preserve" text-anchor="middle" x="233.92" y="-57.95" font-family="Times,serif" font-size="14.00">2</text>
</g>
<!-- rv_zbb -->
<g id="node17" class="node">
<title>rv_zbb</title>
<ellipse fill="none" stroke="black" cx="618.42" cy="-464.25" rx="44.37" ry="18"/>
<text xml:space="preserve" text-anchor="middle" x="618.42" y="-459.57" font-family="Times,serif" font-size="14.00">rv_zbb</text>
</g>
<!-- rv_zbb&#45;&#45;rv_zk -->
<g id="edge23" class="edge">
<title>rv_zbb&#45;&#45;rv_zk</title>
<path fill="none" stroke="black" d="M631.42,-446.9C635.76,-441.15 640.49,-434.54 644.42,-428.25 671.33,-385.09 697.27,-330.87 709.73,-303.79"/>
<text xml:space="preserve" text-anchor="middle" x="687.68" y="-370.32" font-family="Times,serif" font-size="14.00">5</text>
</g>
<!-- rv_zbb&#45;&#45;rv_zkn -->
<g id="edge24" class="edge">
<title>rv_zbb&#45;&#45;rv_zkn</title>
<path fill="none" stroke="black" d="M617.16,-446.06C615.79,-418.78 615.57,-364.29 631.42,-321.75 647.72,-277.99 683.67,-235.67 704.55,-213.5"/>
<text xml:space="preserve" text-anchor="middle" x="635.92" y="-325.7" font-family="Times,serif" font-size="14.00">5</text>
</g>
<!-- rv_zbb&#45;&#45;rv_zks -->
<g id="edge25" class="edge">
<title>rv_zbb&#45;&#45;rv_zks</title>
<path fill="none" stroke="black" d="M581.87,-453.77C552.21,-443.93 512.34,-425.34 493.42,-393 485.34,-379.19 488.25,-372.14 493.42,-357 517.18,-287.4 542.45,-275.07 602.42,-232.5 615.72,-223.05 621.63,-224.64 634.42,-214.5 651.42,-201.01 650.24,-191.76 667.42,-178.5 699.77,-153.53 742.27,-132.83 770.42,-120.52"/>
<text xml:space="preserve" text-anchor="middle" x="557.76" y="-281.07" font-family="Times,serif" font-size="14.00">5</text>
</g>
<!-- rv_zbb&#45;&#45;rv_zbkb -->
<g id="edge22" class="edge">
<title>rv_zbb&#45;&#45;rv_zbkb</title>
<path fill="none" stroke="black" d="M606,-446.84C594.28,-431.34 576.78,-408.21 565,-392.63"/>
<text xml:space="preserve" text-anchor="middle" x="595.83" y="-414.95" font-family="Times,serif" font-size="14.00">5</text>
</g>
<!-- rv64_zbb -->
<g id="node18" class="node">
<title>rv64_zbb</title>
<ellipse fill="none" stroke="black" cx="89.42" cy="-464.25" rx="57" ry="18"/>
<text xml:space="preserve" text-anchor="middle" x="89.42" y="-459.57" font-family="Times,serif" font-size="14.00">rv64_zbb</text>
</g>
<!-- rv64_zbb&#45;&#45;rv64_zk -->
<g id="edge27" class="edge">
<title>rv64_zbb&#45;&#45;rv64_zk</title>
<path fill="none" stroke="black" d="M79.71,-446.34C68.69,-424.75 53.89,-386.65 67.42,-357 78.55,-332.61 102.78,-313.44 121.86,-301.32"/>
<text xml:space="preserve" text-anchor="middle" x="71.92" y="-370.32" font-family="Times,serif" font-size="14.00">4</text>
</g>
<!-- rv64_zbb&#45;&#45;rv64_zkn -->
<g id="edge28" class="edge">
<title>rv64_zbb&#45;&#45;rv64_zkn</title>
<path fill="none" stroke="black" d="M124.7,-449.68C152.76,-437.7 191.9,-418.22 220.42,-393 276.21,-343.65 284.49,-320.62 307.42,-249.75 311.13,-238.28 313.9,-224.99 315.74,-214.68"/>
<text xml:space="preserve" text-anchor="middle" x="284.46" y="-325.7" font-family="Times,serif" font-size="14.00">4</text>
</g>
<!-- rv64_zbb&#45;&#45;rv64_zbkb -->
<g id="edge26" class="edge">
<title>rv64_zbb&#45;&#45;rv64_zbkb</title>
<path fill="none" stroke="black" d="M100.79,-446.43C111.17,-431.08 126.44,-408.5 136.87,-393.07"/>
<text xml:space="preserve" text-anchor="middle" x="128.7" y="-414.95" font-family="Times,serif" font-size="14.00">4</text>
</g>
<!-- rv64_zbb&#45;&#45;rv64_zks -->
<g id="edge29" class="edge">
<title>rv64_zbb&#45;&#45;rv64_zks</title>
<path fill="none" stroke="black" d="M62.92,-447.85C40.64,-432.69 12.42,-407.31 12.42,-376 12.42,-376 12.42,-376 12.42,-195.5 12.42,-168.82 28.8,-141.84 41.34,-125.09"/>
<text xml:space="preserve" text-anchor="middle" x="16.92" y="-281.07" font-family="Times,serif" font-size="14.00">4</text>
</g>
<!-- rv_zvknha&#45;&#45;rv_zvknhb -->
<g id="edge38" class="edge">
<title>rv_zvknha&#45;&#45;rv_zvknhb</title>
<path fill="none" stroke="black" d="M1410.44,-267.51C1408.69,-252.22 1406.14,-229.99 1404.39,-214.7"/>
<text xml:space="preserve" text-anchor="middle" x="1412.81" y="-236.45" font-family="Times,serif" font-size="14.00">3</text>
</g>
<!-- rv_zbc -->
<g id="node27" class="node">
<title>rv_zbc</title>
<ellipse fill="none" stroke="black" cx="895.42" cy="-464.25" rx="43.32" ry="18"/>
<text xml:space="preserve" text-anchor="middle" x="895.42" y="-459.57" font-family="Times,serif" font-size="14.00">rv_zbc</text>
</g>
<!-- rv_zbc&#45;&#45;rv_zk -->
<g id="edge46" class="edge">
<title>rv_zbc&#45;&#45;rv_zk</title>
<path fill="none" stroke="black" d="M854.76,-457.6C816.27,-449.97 760.09,-432.43 730.42,-393 710.86,-367.01 711.97,-326.9 714.63,-304.12"/>
<text xml:space="preserve" text-anchor="middle" x="734.92" y="-370.32" font-family="Times,serif" font-size="14.00">2</text>
</g>
<!-- rv_zbc&#45;&#45;rv_zkn -->
<g id="edge47" class="edge">
<title>rv_zbc&#45;&#45;rv_zkn</title>
<path fill="none" stroke="black" d="M919.87,-449.2C938.42,-437 962.52,-417.47 973.42,-393 979.92,-378.38 978.02,-372.32 973.42,-357 953.61,-291.11 942.16,-264.81 881.42,-232.5 836.91,-208.82 818.31,-226.81 769.42,-214.5 763.74,-213.07 757.79,-211.27 752.07,-209.38"/>
<text xml:space="preserve" text-anchor="middle" x="972.17" y="-325.7" font-family="Times,serif" font-size="14.00">2</text>
</g>
<!-- rv_zbc&#45;&#45;rv_zks -->
<g id="edge48" class="edge">
<title>rv_zbc&#45;&#45;rv_zks</title>
<path fill="none" stroke="black" d="M934.51,-456.11C975.62,-446.08 1034.42,-423.44 1034.42,-376 1034.42,-376 1034.42,-376 1034.42,-195.5 1034.42,-154.53 906.87,-126.5 840.11,-114.63"/>
<text xml:space="preserve" text-anchor="middle" x="1038.92" y="-281.07" font-family="Times,serif" font-size="14.00">2</text>
</g>
<!-- rv_zbkc -->
<g id="node28" class="node">
<title>rv_zbkc</title>
<ellipse fill="none" stroke="black" cx="797.42" cy="-375" rx="49.1" ry="18"/>
<text xml:space="preserve" text-anchor="middle" x="797.42" y="-370.32" font-family="Times,serif" font-size="14.00">rv_zbkc</text>
</g>
<!-- rv_zbc&#45;&#45;rv_zbkc -->
<g id="edge45" class="edge">
<title>rv_zbc&#45;&#45;rv_zbkc</title>
<path fill="none" stroke="black" d="M877.9,-447.65C860.28,-431.97 833.25,-407.9 815.45,-392.05"/>
<text xml:space="preserve" text-anchor="middle" x="859.69" y="-414.95" font-family="Times,serif" font-size="14.00">2</text>
</g>
<!-- rv_zbkc&#45;&#45;rv_zk -->
<g id="edge49" class="edge">
<title>rv_zbkc&#45;&#45;rv_zk</title>
<path fill="none" stroke="black" d="M772.97,-358.95C764.91,-353.3 756.27,-346.43 749.42,-339 739.61,-328.37 731.19,-314.29 725.45,-303.42"/>
<text xml:space="preserve" text-anchor="middle" x="753.92" y="-325.7" font-family="Times,serif" font-size="14.00">2</text>
</g>
<!-- rv_zbkc&#45;&#45;rv_zkn -->
<g id="edge50" class="edge">
<title>rv_zbkc&#45;&#45;rv_zkn</title>
<path fill="none" stroke="black" d="M796.48,-356.77C795.58,-346.44 793.83,-333.15 790.42,-321.75 777.92,-280.01 749.52,-236.93 732.99,-214.09"/>
<text xml:space="preserve" text-anchor="middle" x="788.54" y="-281.07" font-family="Times,serif" font-size="14.00">2</text>
</g>
<!-- rv_zbkc&#45;&#45;rv_zks -->
<g id="edge51" class="edge">
<title>rv_zbkc&#45;&#45;rv_zks</title>
<path fill="none" stroke="black" d="M802.69,-356.71C804.18,-351.11 805.61,-344.84 806.42,-339 816.22,-268.33 811.44,-249.82 809.42,-178.5 808.97,-162.81 809.4,-158.82 807.42,-143.25 806.68,-137.47 805.54,-131.22 804.39,-125.62"/>
<text xml:space="preserve" text-anchor="middle" x="816.68" y="-236.45" font-family="Times,serif" font-size="14.00">2</text>
</g>
<!-- rv_zbkx -->
<g id="node29" class="node">
<title>rv_zbkx</title>
<ellipse fill="none" stroke="black" cx="914.42" cy="-375" rx="49.63" ry="18"/>
<text xml:space="preserve" text-anchor="middle" x="914.42" y="-370.32" font-family="Times,serif" font-size="14.00">rv_zbkx</text>
</g>
<!-- rv_zbkx&#45;&#45;rv_zk -->
<g id="edge52" class="edge">
<title>rv_zbkx&#45;&#45;rv_zk</title>
<path fill="none" stroke="black" d="M884.07,-360.56C845.86,-343.64 780.82,-314.83 744.32,-298.66"/>
<text xml:space="preserve" text-anchor="middle" x="838.06" y="-325.7" font-family="Times,serif" font-size="14.00">2</text>
</g>
<!-- rv_zbkx&#45;&#45;rv_zkn -->
<g id="edge53" class="edge">
<title>rv_zbkx&#45;&#45;rv_zkn</title>
<path fill="none" stroke="black" d="M912.92,-356.58C909.36,-326.4 897.56,-264.54 859.42,-232.5 828.18,-206.26 808.78,-225.21 769.42,-214.5 763.86,-212.99 758.01,-211.17 752.38,-209.29"/>
<text xml:space="preserve" text-anchor="middle" x="906.26" y="-281.07" font-family="Times,serif" font-size="14.00">2</text>
</g>
<!-- rv_zbkx&#45;&#45;rv_zks -->
<g id="edge54" class="edge">
<title>rv_zbkx&#45;&#45;rv_zks</title>
<path fill="none" stroke="black" d="M919.18,-356.69C920.51,-351.09 921.76,-344.82 922.42,-339 925.99,-307.34 926.35,-297.3 914.42,-267.75 890.71,-209.05 841.27,-151.45 816.01,-124.34"/>
<text xml:space="preserve" text-anchor="middle" x="910.58" y="-236.45" font-family="Times,serif" font-size="14.00">2</text>
</g>
</g>
</svg>
